<svg xmlns="http://www.w3.org/2000/svg" version="1.1" xmlns:xlink="http://www.w3.org/1999/xlink" xmlns:svgjs="http://svgjs.dev/svgjs" width="2000" height="1247" viewBox="0 0 2000 1247"><g transform="matrix(1,0,0,1,-1.2121212121212466,0.504858299595071)"><svg viewBox="0 0 396 247" data-background-color="#111010" preserveAspectRatio="xMidYMid meet" height="1247" width="2000" xmlns="http://www.w3.org/2000/svg" xmlns:xlink="http://www.w3.org/1999/xlink"><g id="tight-bounds" transform="matrix(1,0,0,1,0.2400000000000091,-0.09999999999999432)"><svg viewBox="0 0 395.52 247.2" height="247.2" width="395.52"><g><svg></svg></g><g><svg viewBox="0 0 395.52 247.2" height="247.2" width="395.52"><g transform="matrix(1,0,0,1,75.54432,65.89262919986828)"><svg viewBox="0 0 244.43135999999998 115.41474160026341" height="115.41474160026341" width="244.43135999999998"><g><svg viewBox="0 0 244.43135999999998 115.41474160026341" height="115.41474160026341" width="244.43135999999998"><g><svg viewBox="0 0 244.43135999999998 115.41474160026341" height="115.41474160026341" width="244.43135999999998"><g><svg viewBox="0 0 244.43135999999998 115.41474160026341" height="115.41474160026341" width="244.43135999999998"><g id="textblocktransform"><svg viewBox="0 0 244.43135999999998 115.41474160026341" height="115.41474160026341" width="244.43135999999998" id="textblock"><g><svg viewBox="0 0 244.43135999999998 115.41474160026341" height="115.41474160026341" width="244.43135999999998"><g transform="matrix(1,0,0,1,0,0)"><svg width="244.43135999999998" viewBox="3.64 -35.01 74.14 35.01" height="115.41474160026341" data-palette-color="#ffdbe7"><path d="M38.62-8.91L38.62-7.69Q38.62-6.52 38.22-5.18 37.82-3.83 36.9-2.69 35.99-1.54 34.52-0.77 33.06 0 30.93 0L30.93 0 6.84 0Q6.15 0 5.57-0.24 4.98-0.49 4.55-0.92 4.13-1.34 3.88-1.93 3.64-2.51 3.64-3.2L3.64-3.2 3.64-31.81Q3.64-32.47 3.88-33.06 4.13-33.64 4.55-34.08 4.98-34.52 5.57-34.77 6.15-35.01 6.84-35.01L6.84-35.01 28.08-35.01Q29.25-35.01 30.59-34.59 31.93-34.18 33.09-33.26 34.25-32.35 35.02-30.88 35.79-29.42 35.79-27.29L35.79-27.29 35.79-26.1Q35.79-24.41 35.23-22.47 34.67-20.53 33.42-18.8L33.42-18.8Q34.5-18.14 35.44-17.21 36.38-16.28 37.08-15.06 37.79-13.84 38.21-12.3 38.62-10.77 38.62-8.91L38.62-8.91ZM32.28-7.74L32.28-8.91Q32.28-10.16 31.88-11.15 31.49-12.13 30.79-12.84 30.08-13.55 29.08-13.93 28.08-14.31 26.83-14.31L26.83-14.31 12.52-14.31 12.52-20.7 23.97-20.7Q25.22-20.7 26.22-21.08 27.22-21.46 27.93-22.17 28.64-22.88 29.02-23.86 29.39-24.85 29.39-26.1L29.39-26.1 29.39-27.29Q29.39-28.66 28.08-28.66L28.08-28.66 9.99-28.66 9.99-6.35 30.93-6.35Q31.1-6.35 31.35-6.37 31.59-6.4 31.79-6.52 31.98-6.64 32.13-6.93 32.28-7.23 32.28-7.74L32.28-7.74ZM77.78-10.3L77.78-10.3Q77.78-8.42 77.3-6.92 76.83-5.42 76.05-4.27 75.27-3.13 74.22-2.32 73.17-1.51 72.04-1 70.92-0.49 69.76-0.24 68.6 0 67.58 0L67.58 0 43.09 0 43.09-6.35 67.58-6.35Q69.41-6.35 70.42-7.42 71.43-8.5 71.43-10.3L71.43-10.3Q71.43-11.18 71.16-11.91 70.9-12.65 70.4-13.18 69.89-13.72 69.17-14.01 68.45-14.31 67.58-14.31L67.58-14.31 52.98-14.31Q51.44-14.31 49.66-14.86 47.87-15.41 46.35-16.63 44.82-17.85 43.81-19.82 42.8-21.8 42.8-24.66L42.8-24.66Q42.8-27.51 43.81-29.48 44.82-31.45 46.35-32.68 47.87-33.91 49.66-34.46 51.44-35.01 52.98-35.01L52.98-35.01 74.58-35.01 74.58-28.66 52.98-28.66Q51.17-28.66 50.16-27.56 49.14-26.46 49.14-24.66L49.14-24.66Q49.14-22.83 50.16-21.77 51.17-20.7 52.98-20.7L52.98-20.7 67.58-20.7 67.62-20.7Q68.65-20.68 69.8-20.42 70.94-20.17 72.08-19.63 73.22-19.09 74.24-18.27 75.27-17.46 76.06-16.31 76.85-15.16 77.32-13.67 77.78-12.18 77.78-10.3Z" opacity="1" transform="matrix(1,0,0,1,0,0)" fill="#ffdbe7" class="wordmark-text-0" data-fill-palette-color="primary" id="text-0"></path></svg></g></svg></g></svg></g></svg></g></svg></g></svg></g></svg></g><g><path d="M0 123.6c0-68.262 55.338-123.6 123.6-123.6 41.694 0 78.566 20.645 100.952 52.269l-6.448 0c-21.613-28.59-55.901-47.065-94.504-47.065-65.388 0-118.396 53.008-118.396 118.396 0 65.388 53.008 118.396 118.396 118.396 38.603 0 72.891-18.475 94.504-47.065h6.448c-22.386 31.625-59.258 52.269-100.952 52.269-68.262 0-123.6-55.338-123.6-123.6z" fill="#ffdbe7" stroke="transparent" data-fill-palette-color="tertiary"></path></g></svg></g><defs></defs></svg><rect width="395.52" height="247.2" fill="none" stroke="none" visibility="hidden"></rect></g></svg></g></svg>